<svg width="1920" height="1024" viewBox="0 0 1920 1024" fill="none" xmlns="http://www.w3.org/2000/svg">
<g clip-path="url(#clip0_859_13716)">
<rect width="1920" height="1024" fill="black"/>
<path d="M315.51 1048.86H313.952V1050.42H315.51V1048.86Z" fill="white"/>
<path d="M338.872 1059.76H337.315V1061.32H338.872V1059.76Z" fill="white"/>
<path d="M338.872 1071.44H337.315V1073H338.872V1071.44Z" fill="white"/>
<path d="M349.774 1059.76H348.217V1061.32H349.774V1059.76Z" fill="white"/>
<path d="M327.191 1014.59H325.633V1016.15H327.191V1014.59Z" fill="white"/>
<path d="M315.51 1014.59H313.952V1016.15H315.51V1014.59Z" fill="white"/>
<path d="M292.926 1014.59H291.369V1016.15H292.926V1014.59Z" fill="white"/>
<path d="M304.607 1024.72H303.05V1026.27H304.607V1024.72Z" fill="white"/>
<path d="M327.191 1025.49H325.633V1027.05H327.191V1025.49Z" fill="white"/>
<path d="M327.191 1036.4H325.633V1037.95H327.191V1036.4Z" fill="white"/>
<path d="M338.872 1036.4H337.315V1037.95H338.872V1036.4Z" fill="white"/>
<path d="M338.872 1014.59H337.315V1016.15H338.872V1014.59Z" fill="white"/>
<path d="M338.872 1002.91H337.315V1004.47H338.872V1002.91Z" fill="white"/>
<path d="M350.553 1002.91H348.996V1004.47H350.553V1002.91Z" fill="white"/>
<path d="M257.883 1013.81H256.325V1015.37H257.883V1013.81Z" fill="white"/>
<path d="M257.883 990.449H256.325V992.007H257.883V990.449Z" fill="white"/>
<path d="M269.564 990.449H268.007V992.007H269.564V990.449Z" fill="white"/>
<path d="M281.245 979.546H279.688V981.104H281.245V979.546Z" fill="white"/>
<path d="M292.926 979.546H291.369V981.104H292.926V979.546Z" fill="white"/>
<path d="M304.607 990.449H303.05V992.007H304.607V990.449Z" fill="white"/>
<path d="M316.289 990.449H314.731V992.007H316.289V990.449Z" fill="white"/>
<path d="M247.759 990.449H246.202V992.007H247.759V990.449Z" fill="white"/>
<path d="M257.883 979.546H256.325V981.104H257.883V979.546Z" fill="white"/>
<path d="M257.883 957.74H256.325V959.298H257.883V957.74Z" fill="white"/>
<path d="M224.397 979.546H222.839V981.104H224.397V979.546Z" fill="white"/>
<path d="M212.716 979.546H211.158V981.104H212.716V979.546Z" fill="white"/>
<path d="M212.716 957.74H211.158V959.298H212.716V957.74Z" fill="white"/>
<path d="M224.397 945.28H222.839V946.837H224.397V945.28Z" fill="white"/>
<path d="M235.299 945.28H233.742V946.837H235.299V945.28Z" fill="white"/>
<path d="M246.202 942.165H244.644V943.722H246.202V942.165Z" fill="white"/>
<path d="M281.245 968.643H279.688V970.201H281.245V968.643Z" fill="white"/>
<path d="M292.926 968.643H291.369V970.201H292.926V968.643Z" fill="white"/>
<path d="M304.607 968.643H303.05V970.201H304.607V968.643Z" fill="white"/>
<path d="M327.191 979.546H325.633V981.104H327.191V979.546Z" fill="white"/>
<path d="M338.872 979.546H337.315V981.104H338.872V979.546Z" fill="white"/>
<path d="M327.97 968.643H326.412V970.201H327.97V968.643Z" fill="white"/>
<path d="M326.412 956.183H324.855V957.74H326.412V956.183Z" fill="white"/>
<path d="M304.607 956.183H303.05V957.74H304.607V956.183Z" fill="white"/>
<path d="M292.926 956.183H291.369V957.74H292.926V956.183Z" fill="white"/>
<path d="M292.926 945.28H291.369V946.837H292.926V945.28Z" fill="white"/>
<path d="M304.607 945.28H303.05V946.837H304.607V945.28Z" fill="white"/>
<path d="M281.245 945.28H279.688V946.837H281.245V945.28Z" fill="white"/>
<path d="M257.883 923.474H256.325V925.032H257.883V923.474Z" fill="white"/>
<path d="M257.883 910.235H256.325V911.792H257.883V910.235Z" fill="white"/>
<path d="M292.926 910.235H291.369V911.792H292.926V910.235Z" fill="white"/>
<path d="M315.51 911.792H313.952V913.35H315.51V911.792Z" fill="white"/>
<path d="M326.412 908.677H324.855V910.235H326.412V908.677Z" fill="white"/>
<path d="M338.872 910.235H337.315V911.792H338.872V910.235Z" fill="white"/>
<path d="M362.234 933.598H360.677V935.156H362.234V933.598Z" fill="white"/>
<path d="M373.137 921.916H371.579V923.474H373.137V921.916Z" fill="white"/>
<path d="M372.358 910.235H370.8V911.792H372.358V910.235Z" fill="white"/>
<path d="M373.137 897.774H371.579V899.332H373.137V897.774Z" fill="white"/>
<path d="M396.499 899.332H394.941V900.889H396.499V899.332Z" fill="white"/>
<path d="M419.082 911.792H417.525V913.35H419.082V911.792Z" fill="white"/>
<path d="M418.304 921.138H416.746V922.695H418.304V921.138Z" fill="white"/>
<path d="M362.234 910.235H360.677V911.792H362.234V910.235Z" fill="white"/>
<path d="M349.774 899.332H348.217V900.889H349.774V899.332Z" fill="white"/>
<path d="M338.872 898.553H337.315V900.111H338.872V898.553Z" fill="white"/>
<path d="M315.51 887.65H313.952V889.208H315.51V887.65Z" fill="white"/>
<path d="M303.05 887.65H301.492V889.208H303.05V887.65Z" fill="white"/>
<path d="M292.148 875.968H290.59V877.526H292.148V875.968Z" fill="white"/>
<path d="M327.191 876.747H325.633V878.305H327.191V876.747Z" fill="white"/>
<path d="M338.093 875.19H336.536V876.747H338.093V875.19Z" fill="white"/>
<path d="M327.191 865.065H325.633V866.623H327.191V865.065Z" fill="white"/>
<path d="M327.191 853.384H325.633V854.941H327.191V853.384Z" fill="white"/>
<path d="M281.245 875.968H279.688V877.526H281.245V875.968Z" fill="white"/>
<path d="M268.785 887.65H267.228V889.208H268.785V887.65Z" fill="white"/>
<path d="M258.662 887.65H257.104V889.208H258.662V887.65Z" fill="white"/>
<path d="M257.883 875.968H256.325V877.526H257.883V875.968Z" fill="white"/>
<path d="M246.202 886.871H244.644V888.429H246.202V886.871Z" fill="white"/>
<path d="M235.299 898.553H233.742V900.111H235.299V898.553Z" fill="white"/>
<path d="M222.839 910.235H221.282V911.792H222.839V910.235Z" fill="white"/>
<path d="M211.937 921.916H210.38V923.474H211.937V921.916Z" fill="white"/>
<path d="M200.256 933.598H198.698V935.156H200.256V933.598Z" fill="white"/>
<path d="M212.716 910.235H211.158V911.792H212.716V910.235Z" fill="white"/>
<path d="M213.495 899.332H211.937V900.889H213.495V899.332Z" fill="white"/>
<path d="M223.618 898.553H222.061V900.111H223.618V898.553Z" fill="white"/>
<path d="M200.256 910.235H198.698V911.792H200.256V910.235Z" fill="white"/>
<path d="M176.894 910.235H175.336V911.792H176.894V910.235Z" fill="white"/>
<path d="M177.672 921.916H176.115V923.474H177.672V921.916Z" fill="white"/>
<path d="M165.991 932.819H164.434V934.377H165.991V932.819Z" fill="white"/>
<path d="M143.408 956.183H141.85V957.74H143.408V956.183Z" fill="white"/>
<path d="M143.408 967.086H141.85V968.643H143.408V967.086Z" fill="white"/>
<path d="M131.727 967.086H130.169V968.643H131.727V967.086Z" fill="white"/>
<path d="M120.046 967.086H118.488V968.643H120.046V967.086Z" fill="white"/>
<path d="M120.046 977.989H118.488V979.546H120.046V977.989Z" fill="white"/>
<path d="M131.727 933.598H130.169V935.156H131.727V933.598Z" fill="white"/>
<path d="M131.727 921.916H130.169V923.474H131.727V921.916Z" fill="white"/>
<path d="M132.505 911.014H130.948V912.571H132.505V911.014Z" fill="white"/>
<path d="M120.046 898.553H118.488V900.111H120.046V898.553Z" fill="white"/>
<path d="M120.046 886.871H118.488V888.429H120.046V886.871Z" fill="white"/>
<path d="M132.505 887.65H130.948V889.208H132.505V887.65Z" fill="white"/>
<path d="M142.629 888.429H141.072V889.986H142.629V888.429Z" fill="white"/>
<path d="M155.868 886.871H154.31V888.429H155.868V886.871Z" fill="white"/>
<path d="M144.187 875.968H142.629V877.526H144.187V875.968Z" fill="white"/>
<path d="M166.77 875.968H165.213V877.526H166.77V875.968Z" fill="white"/>
<path d="M178.451 875.19H176.894V876.747H178.451V875.19Z" fill="white"/>
<path d="M189.354 887.65H187.796V889.208H189.354V887.65Z" fill="white"/>
<path d="M200.256 886.871H198.698V888.429H200.256V886.871Z" fill="white"/>
<path d="M211.937 875.19H210.38V876.747H211.937V875.19Z" fill="white"/>
<path d="M224.397 875.968H222.839V877.526H224.397V875.968Z" fill="white"/>
<path d="M177.672 864.287H176.115V865.844H177.672V864.287Z" fill="white"/>
<path d="M189.354 864.287H187.796V865.844H189.354V864.287Z" fill="white"/>
<path d="M165.991 865.065H164.434V866.623H165.991V865.065Z" fill="white"/>
<path d="M176.894 852.605H175.336V854.163H176.894V852.605Z" fill="white"/>
<path d="M189.354 853.384H187.796V854.941H189.354V853.384Z" fill="white"/>
<path d="M211.937 852.605H210.38V854.163H211.937V852.605Z" fill="white"/>
<path d="M223.618 841.702H222.061V843.26H223.618V841.702Z" fill="white"/>
<path d="M236.078 841.702H234.521V843.26H236.078V841.702Z" fill="white"/>
<path d="M235.299 830.02H233.742V831.578H235.299V830.02Z" fill="white"/>
<path d="M257.883 819.117H256.325V820.675H257.883V819.117Z" fill="white"/>
<path d="M269.564 818.339H268.007V819.896H269.564V818.339Z" fill="white"/>
<path d="M246.98 807.436H245.423V808.993H246.98V807.436Z" fill="white"/>
<path d="M246.98 794.975H245.423V796.533H246.98V794.975Z" fill="white"/>
<path d="M235.299 806.657H233.742V808.214H235.299V806.657Z" fill="white"/>
<path d="M223.618 795.754H222.061V797.311H223.618V795.754Z" fill="white"/>
<path d="M165.991 841.702H164.434V843.26H165.991V841.702Z" fill="white"/>
<path d="M143.408 853.384H141.85V854.941H143.408V853.384Z" fill="white"/>
<path d="M131.727 840.923H130.169V842.481H131.727V840.923Z" fill="white"/>
<path d="M108.364 864.287H106.807V865.844H108.364V864.287Z" fill="white"/>
<path d="M108.364 852.605H106.807V854.163H108.364V852.605Z" fill="white"/>
<path d="M108.364 841.702H106.807V843.26H108.364V841.702Z" fill="white"/>
<path d="M97.4621 853.384H95.9046V854.941H97.4621V853.384Z" fill="white"/>
<path d="M86.5597 864.287H85.0022V865.844H86.5597V864.287Z" fill="white"/>
<path d="M74.0998 875.968H72.5423V877.526H74.0998V875.968Z" fill="white"/>
<path d="M63.1974 875.19H61.6399V876.747H63.1974V875.19Z" fill="white"/>
<path d="M50.7375 887.65H49.1801V889.208H50.7375V887.65Z" fill="white"/>
<path d="M51.5163 899.332H49.9588V900.889H51.5163V899.332Z" fill="white"/>
<path d="M62.4187 899.332H60.8612V900.889H62.4187V899.332Z" fill="white"/>
<path d="M74.0998 898.553H72.5423V900.111H74.0998V898.553Z" fill="white"/>
<path d="M63.1974 852.605H61.6399V854.163H63.1974V852.605Z" fill="white"/>
<path d="M52.295 852.605H50.7375V854.163H52.295V852.605Z" fill="white"/>
<path d="M63.1974 840.923H61.6399V842.481H63.1974V840.923Z" fill="white"/>
<path d="M86.5597 841.702H85.0022V843.26H86.5597V841.702Z" fill="white"/>
<path d="M85.7809 830.02H84.2234V831.578H85.7809V830.02Z" fill="white"/>
<path d="M86.5597 819.117H85.0022V820.675H86.5597V819.117Z" fill="white"/>
<path d="M97.4621 806.657H95.9046V808.214H97.4621V806.657Z" fill="white"/>
<path d="M108.364 819.117H106.807V820.675H108.364V819.117Z" fill="white"/>
<path d="M62.4187 830.02H60.8612V831.578H62.4187V830.02Z" fill="white"/>
<path d="M51.5163 818.339H49.9588V819.896H51.5163V818.339Z" fill="white"/>
<path d="M51.5163 808.214H49.9588V809.772H51.5163V808.214Z" fill="white"/>
<path d="M50.7375 796.533H49.1801V798.09H50.7375V796.533Z" fill="white"/>
<path d="M39.8351 784.851H38.2777V786.409H39.8351V784.851Z" fill="white"/>
<path d="M39.8351 773.169H38.2777V774.727H39.8351V773.169Z" fill="white"/>
<path d="M49.9588 762.266H48.4013V763.824H49.9588V762.266Z" fill="white"/>
<path d="M52.295 748.248H50.7375V749.806H52.295V748.248Z" fill="white"/>
<path d="M74.0998 773.169H72.5423V774.727H74.0998V773.169Z" fill="white"/>
<path d="M85.0022 771.612H83.4447V773.169H85.0022V771.612Z" fill="white"/>
<path d="M97.4621 760.709H95.9046V762.266H97.4621V760.709Z" fill="white"/>
<path d="M95.9046 774.727H94.3471V776.284H95.9046V774.727Z" fill="white"/>
<path d="M113.037 783.293H111.479V784.851H113.037V783.293Z" fill="white"/>
<path d="M97.4621 784.851H95.9046V786.409H97.4621V784.851Z" fill="white"/>
<path d="M39.8351 739.682H38.2777V741.239H39.8351V739.682Z" fill="white"/>
<path d="M42.9501 726.442H41.3926V728H42.9501V726.442Z" fill="white"/>
<path d="M63.1974 807.436H61.6399V808.993H63.1974V807.436Z" fill="white"/>
<path d="M120.046 830.02H118.488V831.578H120.046V830.02Z" fill="white"/>
<path d="M428.427 474.896H426.87V473.339H428.427V474.896Z" fill="white"/>
<path d="M451.79 463.993H450.232V462.436H451.79V463.993Z" fill="white"/>
<path d="M451.79 452.312H450.232V450.754H451.79V452.312Z" fill="white"/>
<path d="M462.692 463.993H461.134V462.436H462.692V463.993Z" fill="white"/>
<path d="M440.108 509.163H438.551V507.605H440.108V509.163Z" fill="white"/>
<path d="M428.427 509.163H426.87V507.605H428.427V509.163Z" fill="white"/>
<path d="M405.844 509.163H404.286V507.605H405.844V509.163Z" fill="white"/>
<path d="M417.525 499.038H415.967V497.481H417.525V499.038Z" fill="white"/>
<path d="M440.108 498.26H438.551V496.702H440.108V498.26Z" fill="white"/>
<path d="M440.108 487.357H438.551V485.799H440.108V487.357Z" fill="white"/>
<path d="M451.79 487.357H450.232V485.799H451.79V487.357Z" fill="white"/>
<path d="M451.79 509.163H450.232V507.605H451.79V509.163Z" fill="white"/>
<path d="M451.79 520.844H450.232V519.287H451.79V520.844Z" fill="white"/>
<path d="M463.471 520.844H461.913V519.287H463.471V520.844Z" fill="white"/>
<path d="M370.8 509.941H369.243V508.384H370.8V509.941Z" fill="white"/>
<path d="M370.8 533.305H369.243V531.747H370.8V533.305Z" fill="white"/>
<path d="M382.482 533.305H380.924V531.747H382.482V533.305Z" fill="white"/>
<path d="M394.163 544.208H392.605V542.65H394.163V544.208Z" fill="white" fill-opacity="0.32"/>
<path d="M405.844 544.208H404.286V542.65H405.844V544.208Z" fill="white"/>
<path d="M417.525 533.305H415.967V531.747H417.525V533.305Z" fill="white"/>
<path d="M429.206 533.305H427.649V531.747H429.206V533.305Z" fill="white"/>
<path d="M360.677 533.305H359.119V531.747H360.677V533.305Z" fill="white" fill-opacity="0.32"/>
<path d="M370.8 544.208H369.243V542.65H370.8V544.208Z" fill="white"/>
<path d="M370.8 566.014H369.243V564.456H370.8V566.014Z" fill="white" fill-opacity="0.32"/>
<path d="M337.315 544.208H335.757V542.65H337.315V544.208Z" fill="white" fill-opacity="0.32"/>
<path d="M325.633 544.208H324.076V542.65H325.633V544.208Z" fill="white"/>
<path d="M325.633 566.014H324.076V564.456H325.633V566.014Z" fill="white" fill-opacity="0.32"/>
<path d="M337.315 578.474H335.757V576.916H337.315V578.474Z" fill="white"/>
<path d="M348.217 578.474H346.659V576.916H348.217V578.474Z" fill="white" fill-opacity="0.32"/>
<path d="M359.119 581.589H357.562V580.032H359.119V581.589Z" fill="white"/>
<path d="M394.163 555.111H392.605V553.553H394.163V555.111Z" fill="white"/>
<path d="M405.844 555.111H404.286V553.553H405.844V555.111Z" fill="white"/>
<path d="M417.525 555.111H415.967V553.553H417.525V555.111Z" fill="white"/>
<path d="M440.108 544.208H438.551V542.65H440.108V544.208Z" fill="white"/>
<path d="M451.79 544.208H450.232V542.65H451.79V544.208Z" fill="white"/>
<path d="M440.887 555.111H439.33V553.553H440.887V555.111Z" fill="white"/>
<path d="M439.33 567.571H437.772V566.014H439.33V567.571Z" fill="white"/>
<path d="M417.525 567.571H415.967V566.014H417.525V567.571Z" fill="white"/>
<path d="M405.844 567.571H404.286V566.014H405.844V567.571Z" fill="white" fill-opacity="0.32"/>
<path d="M405.844 578.474H404.286V576.916H405.844V578.474Z" fill="white" fill-opacity="0.32"/>
<path d="M417.525 578.474H415.967V576.916H417.525V578.474Z" fill="white"/>
<path d="M394.163 578.474H392.605V576.916H394.163V578.474Z" fill="white" fill-opacity="0.32"/>
<path d="M370.8 600.28H369.243V598.722H370.8V600.28Z" fill="white"/>
<path d="M370.8 613.519H369.243V611.962H370.8V613.519Z" fill="white" fill-opacity="0.32"/>
<path d="M405.844 613.519H404.286V611.962H405.844V613.519Z" fill="white"/>
<path d="M428.427 611.962H426.87V610.404H428.427V611.962Z" fill="white" fill-opacity="0.32"/>
<path d="M439.33 615.077H437.772V613.519H439.33V615.077Z" fill="white"/>
<path d="M451.79 613.519H450.232V611.962H451.79V613.519Z" fill="white" fill-opacity="0.32"/>
<path d="M475.152 590.156H473.594V588.598H475.152V590.156Z" fill="white"/>
<path d="M486.054 601.837H484.497V600.28H486.054V601.837Z" fill="white" fill-opacity="0.32"/>
<path d="M485.275 613.519H483.718V611.962H485.275V613.519Z" fill="white"/>
<path d="M486.054 625.98H484.497V624.422H486.054V625.98Z" fill="white"/>
<path d="M509.416 624.422H507.859V622.865H509.416V624.422Z" fill="white" fill-opacity="0.32"/>
<path d="M532 611.962H530.443V610.404H532V611.962Z" fill="white"/>
<path d="M531.221 602.616H529.664V601.059H531.221V602.616Z" fill="white" fill-opacity="0.32"/>
<path d="M475.152 613.519H473.594V611.962H475.152V613.519Z" fill="white"/>
<path d="M462.692 624.422H461.134V622.865H462.692V624.422Z" fill="white" fill-opacity="0.32"/>
<path d="M451.79 625.201H450.232V623.643H451.79V625.201Z" fill="white"/>
<path d="M428.427 636.104H426.87V634.546H428.427V636.104Z" fill="white"/>
<path d="M415.967 636.104H414.41V634.546H415.967V636.104Z" fill="white"/>
<path d="M405.065 647.786H403.508V646.228H405.065V647.786Z" fill="white"/>
<path d="M440.108 647.007H438.551V645.449H440.108V647.007Z" fill="white"/>
<path d="M451.011 648.564H449.453V647.007H451.011V648.564Z" fill="white" fill-opacity="0.32"/>
<path d="M440.108 658.688H438.551V657.131H440.108V658.688Z" fill="white"/>
<path d="M440.108 670.37H438.551V668.813H440.108V670.37Z" fill="white"/>
<path d="M394.163 647.786H392.605V646.228H394.163V647.786Z" fill="white"/>
<path d="M381.703 636.104H380.145V634.546H381.703V636.104Z" fill="white"/>
<path d="M371.579 636.104H370.022V634.546H371.579V636.104Z" fill="white"/>
<path d="M370.8 647.786H369.243V646.228H370.8V647.786Z" fill="white"/>
<path d="M359.119 636.883H357.562V635.325H359.119V636.883Z" fill="white" fill-opacity="0.32"/>
<path d="M348.217 625.201H346.659V623.643H348.217V625.201Z" fill="white"/>
<path d="M335.757 613.519H334.2V611.962H335.757V613.519Z" fill="white"/>
<path d="M324.855 601.837H323.297V600.28H324.855V601.837Z" fill="white"/>
<path d="M313.174 590.156H311.616V588.598H313.174V590.156Z" fill="white" fill-opacity="0.32"/>
<path d="M325.633 613.519H324.076V611.962H325.633V613.519Z" fill="white"/>
<path d="M326.412 624.422H324.855V622.865H326.412V624.422Z" fill="white"/>
<path d="M336.536 625.201H334.978V623.643H336.536V625.201Z" fill="white"/>
<path d="M313.174 613.519H311.616V611.962H313.174V613.519Z" fill="white"/>
<path d="M289.811 613.519H288.254V611.962H289.811V613.519Z" fill="white" fill-opacity="0.32"/>
<path d="M290.59 601.837H289.033V600.28H290.59V601.837Z" fill="white"/>
<path d="M278.909 590.935H277.351V589.377H278.909V590.935Z" fill="white" fill-opacity="0.32"/>
<path d="M256.325 567.571H254.768V566.014H256.325V567.571Z" fill="white" fill-opacity="0.32"/>
<path d="M256.325 556.668H254.768V555.111H256.325V556.668Z" fill="white"/>
<path d="M244.644 556.668H243.087V555.111H244.644V556.668Z" fill="white"/>
<path d="M232.963 556.668H231.406V555.111H232.963V556.668Z" fill="white"/>
<path d="M232.963 545.765H231.406V544.208H232.963V545.765Z" fill="white" fill-opacity="0.32"/>
<path d="M244.644 590.156H243.087V588.598H244.644V590.156Z" fill="white"/>
<path d="M244.644 601.837H243.087V600.28H244.644V601.837Z" fill="white"/>
<path d="M245.423 612.74H243.866V611.183H245.423V612.74Z" fill="white"/>
<path d="M232.963 625.201H231.406V623.643H232.963V625.201Z" fill="white"/>
<path d="M232.963 636.883H231.406V635.325H232.963V636.883Z" fill="white"/>
<path d="M245.423 636.104H243.866V634.546H245.423V636.104Z" fill="white"/>
<path d="M255.547 635.325H253.989V633.767H255.547V635.325Z" fill="white"/>
<path d="M268.785 636.883H267.228V635.325H268.785V636.883Z" fill="white" fill-opacity="0.32"/>
<path d="M257.104 647.786H255.547V646.228H257.104V647.786Z" fill="white"/>
<path d="M279.688 647.786H278.13V646.228H279.688V647.786Z" fill="white"/>
<path d="M291.369 648.564H289.811V647.007H291.369V648.564Z" fill="white"/>
<path d="M302.271 636.104H300.714V634.546H302.271V636.104Z" fill="white" fill-opacity="0.32"/>
<path d="M313.174 636.883H311.616V635.325H313.174V636.883Z" fill="white"/>
<path d="M324.855 648.564H323.297V647.007H324.855V648.564Z" fill="white"/>
<path d="M337.315 647.786H335.757V646.228H337.315V647.786Z" fill="white" fill-opacity="0.32"/>
<path d="M290.59 659.467H289.033V657.91H290.59V659.467Z" fill="white"/>
<path d="M302.271 659.467H300.714V657.91H302.271V659.467Z" fill="white"/>
<path d="M278.909 658.688H277.351V657.131H278.909V658.688Z" fill="white"/>
<path d="M289.811 671.149H288.254V669.591H289.811V671.149Z" fill="white"/>
<path d="M302.271 670.37H300.714V668.813H302.271V670.37Z" fill="white"/>
<path d="M324.855 671.149H323.297V669.591H324.855V671.149Z" fill="white"/>
<path d="M336.536 682.052H334.978V680.494H336.536V682.052Z" fill="white"/>
<path d="M348.996 682.052H347.438V680.494H348.996V682.052Z" fill="white"/>
<path d="M348.217 693.734H346.659V692.176H348.217V693.734Z" fill="white"/>
<path d="M370.8 704.637H369.243V703.079H370.8V704.637Z" fill="white"/>
<path d="M382.482 705.415H380.924V703.858H382.482V705.415Z" fill="white"/>
<path d="M359.898 716.318H358.341V714.761H359.898V716.318Z" fill="white"/>
<path d="M359.898 728.779H358.341V727.221H359.898V728.779Z" fill="white"/>
<path d="M348.217 717.097H346.659V715.539H348.217V717.097Z" fill="white"/>
<path d="M336.536 728H334.978V726.442H336.536V728Z" fill="white"/>
<path d="M278.909 682.052H277.351V680.494H278.909V682.052Z" fill="white"/>
<path d="M256.325 670.37H254.768V668.813H256.325V670.37Z" fill="white"/>
<path d="M244.644 682.831H243.087V681.273H244.644V682.831Z" fill="white"/>
<path d="M221.282 659.467H219.725V657.91H221.282V659.467Z" fill="white"/>
<path d="M221.282 671.149H219.725V669.591H221.282V671.149Z" fill="white"/>
<path d="M221.282 682.052H219.725V680.494H221.282V682.052Z" fill="white" fill-opacity="0.32"/>
<path d="M210.38 670.37H208.822V668.813H210.38V670.37Z" fill="white"/>
<path d="M199.477 659.467H197.92V657.91H199.477V659.467Z" fill="white" fill-opacity="0.32"/>
<path d="M187.017 647.786H185.46V646.228H187.017V647.786Z" fill="white"/>
<path d="M176.115 648.564H174.557V647.007H176.115V648.564Z" fill="white"/>
<path d="M163.655 636.104H162.098V634.546H163.655V636.104Z" fill="white" fill-opacity="0.32"/>
<path d="M164.434 624.422H162.876V622.865H164.434V624.422Z" fill="white" fill-opacity="0.32"/>
<path d="M175.336 624.422H173.779V622.865H175.336V624.422Z" fill="white"/>
<path d="M187.017 625.201H185.46V623.643H187.017V625.201Z" fill="white" fill-opacity="0.32"/>
<path d="M176.115 671.149H174.557V669.591H176.115V671.149Z" fill="white"/>
<path d="M165.213 671.149H163.655V669.591H165.213V671.149Z" fill="white" fill-opacity="0.32"/>
<path d="M176.115 682.831H174.557V681.273H176.115V682.831Z" fill="white"/>
<path d="M199.477 682.052H197.92V680.494H199.477V682.052Z" fill="white" fill-opacity="0.32"/>
<path d="M198.698 693.734H197.141V692.176H198.698V693.734Z" fill="white"/>
<path d="M199.477 704.637H197.92V703.079H199.477V704.637Z" fill="white"/>
<path d="M210.38 717.097H208.822V715.539H210.38V717.097Z" fill="white"/>
<path d="M221.282 704.637H219.725V703.079H221.282V704.637Z" fill="white"/>
<path d="M175.336 693.734H173.779V692.176H175.336V693.734Z" fill="white"/>
<path d="M164.434 705.415H162.876V703.858H164.434V705.415Z" fill="white"/>
<path d="M164.434 715.539H162.876V713.982H164.434V715.539Z" fill="white"/>
<path d="M163.655 727.221H162.098V725.664H163.655V727.221Z" fill="white"/>
<path d="M152.753 738.903H151.195V737.345H152.753V738.903Z" fill="white"/>
<path d="M152.753 750.585H151.195V749.027H152.753V750.585Z" fill="white"/>
<path d="M162.876 761.488H161.319V759.93H162.876V761.488Z" fill="white"/>
<path d="M165.213 775.506H163.655V773.948H165.213V775.506Z" fill="white"/>
<path d="M187.017 750.585H185.46V749.027H187.017V750.585Z" fill="white"/>
<path d="M197.92 752.142H196.362V750.585H197.92V752.142Z" fill="white"/>
<path d="M210.38 763.045H208.822V761.488H210.38V763.045Z" fill="white"/>
<path d="M208.822 749.027H207.265V747.47H208.822V749.027Z" fill="white"/>
<path d="M225.954 740.46H224.397V738.903H225.954V740.46Z" fill="white"/>
<path d="M210.38 738.903H208.822V737.345H210.38V738.903Z" fill="white"/>
<path d="M152.753 784.072H151.195V782.515H152.753V784.072Z" fill="white"/>
<path d="M155.868 797.311H154.31V795.754H155.868V797.311Z" fill="white"/>
<path d="M176.115 716.318H174.557V714.761H176.115V716.318Z" fill="white"/>
<path d="M232.963 693.734H231.406V692.176H232.963V693.734Z" fill="white"/>
<path d="M91.2321 705.415H89.6746V706.973H91.2321V705.415Z" fill="white"/>
<path d="M114.594 716.318H113.037V717.876H114.594V716.318Z" fill="white"/>
<path d="M114.594 728H113.037V729.558H114.594V728Z" fill="white"/>
<path d="M125.497 716.318H123.939V717.876H125.497V716.318Z" fill="white"/>
<path d="M102.913 671.149H101.356V672.707H102.913V671.149Z" fill="white"/>
<path d="M91.2321 671.149H89.6746V672.707H91.2321V671.149Z" fill="white"/>
<path d="M68.6486 671.149H67.0911V672.707H68.6486V671.149Z" fill="white"/>
<path d="M80.3297 681.273H78.7722V682.831H80.3297V681.273Z" fill="white"/>
<path d="M102.913 682.052H101.356V683.609H102.913V682.052Z" fill="white"/>
<path d="M102.913 692.955H101.356V694.512H102.913V692.955Z" fill="white"/>
<path d="M114.594 692.955H113.037V694.512H114.594V692.955Z" fill="white"/>
<path d="M114.594 671.149H113.037V672.707H114.594V671.149Z" fill="white"/>
<path d="M114.594 659.467H113.037V661.025H114.594V659.467Z" fill="white"/>
<path d="M126.276 659.467H124.718V661.025H126.276V659.467Z" fill="white"/>
<path d="M33.6052 670.37H32.0477V671.928H33.6052V670.37Z" fill="white"/>
<path d="M33.6052 647.007H32.0477V648.564H33.6052V647.007Z" fill="white"/>
<path d="M45.2863 647.007H43.7289V648.564H45.2863V647.007Z" fill="white"/>
<path d="M56.9675 636.104H55.41V637.661H56.9675V636.104Z" fill="white"/>
<path d="M68.6486 636.104H67.0911V637.661H68.6486V636.104Z" fill="white"/>
<path d="M80.3297 647.007H78.7722V648.564H80.3297V647.007Z" fill="white"/>
<path d="M92.0109 647.007H90.4534V648.564H92.0109V647.007Z" fill="white"/>
<path d="M23.4816 647.007H21.9241V648.564H23.4816V647.007Z" fill="white"/>
<path d="M33.6052 636.104H32.0477V637.661H33.6052V636.104Z" fill="white"/>
<path d="M33.6052 614.298H32.0477V615.856H33.6052V614.298Z" fill="white"/>
<path d="M0.119324 636.104H-1.43817V637.661H0.119324V636.104Z" fill="white"/>
<path d="M-11.5618 636.104H-13.1193V637.661H-11.5618V636.104Z" fill="white"/>
<path d="M-11.5618 614.298H-13.1193V615.856H-11.5618V614.298Z" fill="white"/>
<path d="M0.119324 601.837H-1.43817V603.395H0.119324V601.837Z" fill="white"/>
<path d="M11.0217 601.837H9.46423V603.395H11.0217V601.837Z" fill="white"/>
<path d="M21.9241 598.722H20.3666V600.28H21.9241V598.722Z" fill="white"/>
<path d="M56.9675 625.201H55.41V626.758H56.9675V625.201Z" fill="white"/>
<path d="M68.6486 625.201H67.0911V626.758H68.6486V625.201Z" fill="white"/>
<path d="M80.3297 625.201H78.7722V626.758H80.3297V625.201Z" fill="white"/>
<path d="M102.913 636.104H101.356V637.661H102.913V636.104Z" fill="white"/>
<path d="M114.594 636.104H113.037V637.661H114.594V636.104Z" fill="white"/>
<path d="M103.692 625.201H102.135V626.758H103.692V625.201Z" fill="white"/>
<path d="M102.135 612.74H100.577V614.298H102.135V612.74Z" fill="white"/>
<path d="M80.3297 612.74H78.7722V614.298H80.3297V612.74Z" fill="white"/>
<path d="M68.6486 612.74H67.0911V614.298H68.6486V612.74Z" fill="white"/>
<path d="M68.6486 601.837H67.0911V603.395H68.6486V601.837Z" fill="white"/>
<path d="M80.3297 601.837H78.7722V603.395H80.3297V601.837Z" fill="white"/>
<path d="M56.9675 601.837H55.41V603.395H56.9675V601.837Z" fill="white"/>
<path d="M33.6052 580.032H32.0477V581.589H33.6052V580.032Z" fill="white"/>
<path d="M33.6052 566.792H32.0477V568.35H33.6052V566.792Z" fill="white"/>
<path d="M68.6486 566.792H67.0911V568.35H68.6486V566.792Z" fill="white"/>
<path d="M91.2321 568.35H89.6746V569.907H91.2321V568.35Z" fill="white"/>
<path d="M102.135 565.235H100.577V566.792H102.135V565.235Z" fill="white"/>
<path d="M114.594 566.792H113.037V568.35H114.594V566.792Z" fill="white"/>
<path d="M137.957 590.156H136.399V591.713H137.957V590.156Z" fill="white"/>
<path d="M148.859 578.474H147.302V580.032H148.859V578.474Z" fill="white"/>
<path d="M148.08 566.792H146.523V568.35H148.08V566.792Z" fill="white"/>
<path d="M148.859 554.332H147.302V555.889H148.859V554.332Z" fill="white" fill-opacity="0.32"/>
<path d="M172.221 555.889H170.664V557.447H172.221V555.889Z" fill="white" fill-opacity="0.32"/>
<path d="M194.805 568.35H193.247V569.907H194.805V568.35Z" fill="white"/>
<path d="M194.026 577.695H192.469V579.253H194.026V577.695Z" fill="white" fill-opacity="0.32"/>
<path d="M137.957 566.792H136.399V568.35H137.957V566.792Z" fill="white"/>
<path d="M125.497 555.889H123.939V557.447H125.497V555.889Z" fill="white"/>
<path d="M114.594 555.111H113.037V556.668H114.594V555.111Z" fill="white"/>
<path d="M91.2321 544.208H89.6746V545.765H91.2321V544.208Z" fill="white"/>
<path d="M78.7722 544.208H77.2148V545.765H78.7722V544.208Z" fill="white"/>
<path d="M67.8699 532.526H66.3124V534.083H67.8699V532.526Z" fill="white"/>
<path d="M102.913 533.305H101.356V534.862H102.913V533.305Z" fill="white"/>
<path d="M113.816 531.747H112.258V533.305H113.816V531.747Z" fill="white"/>
<path d="M102.913 521.623H101.356V523.181H102.913V521.623Z" fill="white"/>
<path d="M102.913 509.941H101.356V511.499H102.913V509.941Z" fill="white"/>
<path d="M56.9675 532.526H55.41V534.083H56.9675V532.526Z" fill="white"/>
<path d="M44.5076 544.208H42.9501V545.765H44.5076V544.208Z" fill="white"/>
<path d="M34.384 544.208H32.8265V545.765H34.384V544.208Z" fill="white"/>
<path d="M33.6052 532.526H32.0477V534.083H33.6052V532.526Z" fill="white"/>
<path d="M21.9241 543.429H20.3666V544.986H21.9241V543.429Z" fill="white"/>
<path d="M11.0217 555.111H9.46423V556.668H11.0217V555.111Z" fill="white"/>
<path d="M-1.43817 566.792H-2.99567V568.35H-1.43817V566.792Z" fill="white"/>
<path d="M-12.3405 578.474H-13.898V580.032H-12.3405V578.474Z" fill="white"/>
<path d="M-24.0217 590.156H-25.5792V591.713H-24.0217V590.156Z" fill="white"/>
<path d="M-11.5618 566.792H-13.1193V568.35H-11.5618V566.792Z" fill="white"/>
<path d="M-10.7831 555.889H-12.3405V557.447H-10.7831V555.889Z" fill="white"/>
<path d="M-0.659424 555.111H-2.21692V556.668H-0.659424V555.111Z" fill="white"/>
<path d="M-24.0217 566.792H-25.5792V568.35H-24.0217V566.792Z" fill="white"/>
<path d="M-47.3839 566.792H-48.9414V568.35H-47.3839V566.792Z" fill="white"/>
<path d="M-46.6052 578.474H-48.1627V580.032H-46.6052V578.474Z" fill="white"/>
<path d="M-58.2863 589.377H-59.8438V590.935H-58.2863V589.377Z" fill="white"/>
<path d="M-80.8698 612.74H-82.4273V614.298H-80.8698V612.74Z" fill="white"/>
<path d="M-80.8698 623.643H-82.4273V625.201H-80.8698V623.643Z" fill="white"/>
<path d="M-92.551 623.643H-94.1085V625.201H-92.551V623.643Z" fill="white"/>
<path d="M-104.232 623.643H-105.79V625.201H-104.232V623.643Z" fill="white"/>
<path d="M-104.232 634.546H-105.79V636.104H-104.232V634.546Z" fill="white"/>
<path d="M-92.551 590.156H-94.1085V591.713H-92.551V590.156Z" fill="white"/>
<path d="M-92.551 578.474H-94.1085V580.032H-92.551V578.474Z" fill="white"/>
<path d="M-91.7722 567.571H-93.3297V569.129H-91.7722V567.571Z" fill="white"/>
<path d="M-104.232 555.111H-105.79V556.668H-104.232V555.111Z" fill="white"/>
<path d="M-104.232 543.429H-105.79V544.986H-104.232V543.429Z" fill="white"/>
<path d="M-91.7722 544.208H-93.3297V545.765H-91.7722V544.208Z" fill="white"/>
<path d="M-81.6486 544.986H-83.2061V546.544H-81.6486V544.986Z" fill="white"/>
<path d="M-68.41 543.429H-69.9675V544.986H-68.41V543.429Z" fill="white"/>
<path d="M-80.0911 532.526H-81.6486V534.083H-80.0911V532.526Z" fill="white"/>
<path d="M-57.5076 532.526H-59.0651V534.083H-57.5076V532.526Z" fill="white"/>
<path d="M-45.8264 531.747H-47.3839V533.305H-45.8264V531.747Z" fill="white"/>
<path d="M-34.9241 544.208H-36.4816V545.765H-34.9241V544.208Z" fill="white"/>
<path d="M-24.0217 543.429H-25.5792V544.986H-24.0217V543.429Z" fill="white"/>
<path d="M-12.3405 531.747H-13.898V533.305H-12.3405V531.747Z" fill="white"/>
<path d="M0.119324 532.526H-1.43817V534.083H0.119324V532.526Z" fill="white"/>
<path d="M-46.6052 520.844H-48.1627V522.402H-46.6052V520.844Z" fill="white"/>
<path d="M-34.9241 520.844H-36.4816V522.402H-34.9241V520.844Z" fill="white"/>
<path d="M-58.2863 521.623H-59.8438V523.181H-58.2863V521.623Z" fill="white"/>
<path d="M-47.3839 509.163H-48.9414V510.72H-47.3839V509.163Z" fill="white"/>
<path d="M-34.9241 509.941H-36.4816V511.499H-34.9241V509.941Z" fill="white"/>
<path d="M-12.3405 509.163H-13.898V510.72H-12.3405V509.163Z" fill="white"/>
<path d="M-0.659424 498.26H-2.21692V499.817H-0.659424V498.26Z" fill="white"/>
<path d="M11.8005 498.26H10.243V499.817H11.8005V498.26Z" fill="white"/>
<path d="M11.0217 486.578H9.46423V488.135H11.0217V486.578Z" fill="white"/>
<path d="M33.6052 475.675H32.0477V477.232H33.6052V475.675Z" fill="white"/>
<path d="M45.2863 474.896H43.7289V476.454H45.2863V474.896Z" fill="white"/>
<path d="M22.7029 463.993H21.1454V465.551H22.7029V463.993Z" fill="white"/>
<path d="M22.7029 451.533H21.1454V453.09H22.7029V451.533Z" fill="white"/>
<path d="M11.0217 463.214H9.46423V464.772H11.0217V463.214Z" fill="white"/>
<path d="M-0.659424 452.312H-2.21692V453.869H-0.659424V452.312Z" fill="white"/>
<path d="M-58.2863 498.26H-59.8438V499.817H-58.2863V498.26Z" fill="white"/>
<path d="M-80.8698 509.941H-82.4273V511.499H-80.8698V509.941Z" fill="white"/>
<path d="M-92.551 497.481H-94.1085V499.038H-92.551V497.481Z" fill="white"/>
<path d="M-115.913 520.844H-117.471V522.402H-115.913V520.844Z" fill="white"/>
<path d="M-115.913 509.163H-117.471V510.72H-115.913V509.163Z" fill="white"/>
<path d="M-115.913 498.26H-117.471V499.817H-115.913V498.26Z" fill="white"/>
<path d="M-126.816 509.941H-128.373V511.499H-126.816V509.941Z" fill="white"/>
<path d="M-137.718 520.844H-139.275V522.402H-137.718V520.844Z" fill="white"/>
<path d="M-150.178 532.526H-151.735V534.083H-150.178V532.526Z" fill="white"/>
<path d="M-161.08 531.747H-162.638V533.305H-161.08V531.747Z" fill="white"/>
<path d="M-173.54 544.208H-175.098V545.765H-173.54V544.208Z" fill="white"/>
<path d="M-172.761 555.889H-174.319V557.447H-172.761V555.889Z" fill="white"/>
<path d="M-161.859 555.889H-163.416V557.447H-161.859V555.889Z" fill="white"/>
<path d="M-150.178 555.111H-151.735V556.668H-150.178V555.111Z" fill="white"/>
<path d="M-161.08 509.163H-162.638V510.72H-161.08V509.163Z" fill="white"/>
<path d="M-171.983 509.163H-173.54V510.72H-171.983V509.163Z" fill="white"/>
<path d="M-161.08 497.481H-162.638V499.038H-161.08V497.481Z" fill="white"/>
<path d="M-137.718 498.26H-139.275V499.817H-137.718V498.26Z" fill="white"/>
<path d="M-138.497 486.578H-140.054V488.135H-138.497V486.578Z" fill="white"/>
<path d="M-137.718 475.675H-139.275V477.232H-137.718V475.675Z" fill="white"/>
<path d="M-126.816 463.214H-128.373V464.772H-126.816V463.214Z" fill="white"/>
<path d="M-115.913 475.675H-117.471V477.232H-115.913V475.675Z" fill="white"/>
<path d="M-161.859 486.578H-163.416V488.135H-161.859V486.578Z" fill="white"/>
<path d="M-172.761 474.896H-174.319V476.454H-172.761V474.896Z" fill="white"/>
<path d="M-172.761 464.772H-174.319V466.33H-172.761V464.772Z" fill="white"/>
<path d="M-173.54 453.09H-175.098V454.648H-173.54V453.09Z" fill="white"/>
<path d="M-184.443 441.409H-186V442.966H-184.443V441.409Z" fill="white"/>
<path d="M-184.443 429.727H-186V431.284H-184.443V429.727Z" fill="white"/>
<path d="M-174.319 418.824H-175.876V420.381H-174.319V418.824Z" fill="white"/>
<path d="M-171.983 404.806H-173.54V406.363H-171.983V404.806Z" fill="white"/>
<path d="M-150.178 429.727H-151.735V431.284H-150.178V429.727Z" fill="white"/>
<path d="M-139.275 428.169H-140.833V429.727H-139.275V428.169Z" fill="white"/>
<path d="M-126.816 417.266H-128.373V418.824H-126.816V417.266Z" fill="white"/>
<path d="M-128.373 431.284H-129.931V432.842H-128.373V431.284Z" fill="white"/>
<path d="M-111.241 439.851H-112.798V441.409H-111.241V439.851Z" fill="white"/>
<path d="M-126.816 441.409H-128.373V442.966H-126.816V441.409Z" fill="white"/>
<path d="M-184.443 396.239H-186V397.797H-184.443V396.239Z" fill="white"/>
<path d="M-181.328 383H-182.885V384.558H-181.328V383Z" fill="white"/>
<path d="M-161.08 463.993H-162.638V465.551H-161.08V463.993Z" fill="white"/>
<path d="M-104.232 486.578H-105.79V488.135H-104.232V486.578Z" fill="white"/>
</g>
<defs>
<clipPath id="clip0_859_13716">
<rect width="1920" height="1024" fill="white"/>
</clipPath>
</defs>
</svg>
