<svg width="136" height="40" viewBox="0 0 136 40" fill="none" xmlns="http://www.w3.org/2000/svg">
<path d="M20.2265 32V14.448C20.2265 14.0107 20.2425 13.5307 20.2745 13.008C20.3065 12.4747 20.3972 11.9467 20.5465 11.424C20.6958 10.9013 20.9678 10.4267 21.3625 10C21.8532 9.456 22.3812 9.08267 22.9465 8.88C23.5225 8.66667 24.0878 8.54933 24.6425 8.528C25.1972 8.496 25.6825 8.48 26.0985 8.48H28.2585V11.616H26.2585C25.5225 11.616 24.9732 11.8027 24.6105 12.176C24.2585 12.5387 24.0825 13.0187 24.0825 13.616V32H20.2265ZM17.4425 17.744V14.72H28.2585V17.744H17.4425ZM31.6185 12.096V8.56H35.4745V12.096H31.6185ZM31.6185 32V14.72H35.4745V32H31.6185ZM51.597 32V23.68C51.597 23.136 51.5597 22.5333 51.485 21.872C51.4103 21.2107 51.2343 20.576 50.957 19.968C50.6903 19.3493 50.285 18.8427 49.741 18.448C49.2077 18.0533 48.4823 17.856 47.565 17.856C47.0743 17.856 46.589 17.936 46.109 18.096C45.629 18.256 45.1917 18.5333 44.797 18.928C44.413 19.312 44.1037 19.8453 43.869 20.528C43.6343 21.2 43.517 22.064 43.517 23.12L41.229 22.144C41.229 20.672 41.5117 19.3387 42.077 18.144C42.653 16.9493 43.4957 16 44.605 15.296C45.7143 14.5813 47.0797 14.224 48.701 14.224C49.981 14.224 51.037 14.4373 51.869 14.864C52.701 15.2907 53.3623 15.8347 53.853 16.496C54.3437 17.1573 54.7063 17.8613 54.941 18.608C55.1757 19.3547 55.325 20.064 55.389 20.736C55.4637 21.3973 55.501 21.936 55.501 22.352V32H51.597ZM39.613 32V14.72H43.053V20.08H43.517V32H39.613ZM69.1643 32C68.0229 32.2133 66.9029 32.304 65.8042 32.272C64.7162 32.2507 63.7402 32.0533 62.8762 31.68C62.0122 31.296 61.3562 30.6933 60.9082 29.872C60.5136 29.1253 60.3056 28.3627 60.2842 27.584C60.2629 26.8053 60.2522 25.9253 60.2522 24.944V9.92H64.0922V24.72C64.0922 25.4133 64.0976 26.0213 64.1082 26.544C64.1296 27.0667 64.2416 27.4933 64.4442 27.824C64.8282 28.464 65.4416 28.8213 66.2843 28.896C67.1269 28.9707 68.0869 28.928 69.1643 28.768V32ZM57.1162 17.744V14.72H69.1643V17.744H57.1162ZM72.24 32V14.72H75.648V18.928L75.232 18.384C75.4453 17.808 75.728 17.2853 76.08 16.816C76.4427 16.336 76.8747 15.9413 77.376 15.632C77.8027 15.344 78.272 15.12 78.784 14.96C79.3067 14.7893 79.84 14.688 80.384 14.656C80.928 14.6133 81.456 14.6347 81.968 14.72V18.32C81.456 18.1707 80.864 18.1227 80.192 18.176C79.5307 18.2293 78.9333 18.416 78.4 18.736C77.8667 19.024 77.4293 19.392 77.088 19.84C76.7573 20.288 76.512 20.8 76.352 21.376C76.192 21.9413 76.112 22.5547 76.112 23.216V32H72.24ZM88.807 32.48C87.559 32.48 86.503 32.2453 85.639 31.776C84.775 31.296 84.119 30.6613 83.671 29.872C83.2337 29.0827 83.015 28.2133 83.015 27.264C83.015 26.432 83.1537 25.6853 83.431 25.024C83.7083 24.352 84.135 23.776 84.711 23.296C85.287 22.8053 86.0337 22.4053 86.951 22.096C87.6443 21.872 88.455 21.6693 89.383 21.488C90.3217 21.3067 91.335 21.1413 92.423 20.992C93.5217 20.832 94.6683 20.6613 95.863 20.48L94.487 21.264C94.4977 20.0693 94.231 19.1893 93.687 18.624C93.143 18.0587 92.2257 17.776 90.935 17.776C90.1563 17.776 89.4043 17.9573 88.679 18.32C87.9537 18.6827 87.447 19.3067 87.159 20.192L83.639 19.088C84.0657 17.6267 84.8763 16.4533 86.071 15.568C87.2763 14.6827 88.8977 14.24 90.935 14.24C92.471 14.24 93.8203 14.4907 94.983 14.992C96.1563 15.4933 97.0257 16.3147 97.591 17.456C97.9003 18.064 98.087 18.688 98.151 19.328C98.215 19.9573 98.247 20.6453 98.247 21.392V32H94.871V28.256L95.431 28.864C94.6523 30.112 93.7403 31.0293 92.695 31.616C91.6603 32.192 90.3643 32.48 88.807 32.48ZM89.575 29.408C90.4497 29.408 91.1963 29.2533 91.815 28.944C92.4337 28.6347 92.9243 28.256 93.287 27.808C93.6603 27.36 93.911 26.9387 94.039 26.544C94.2417 26.0533 94.3537 25.4933 94.375 24.864C94.407 24.224 94.423 23.7067 94.423 23.312L95.607 23.664C94.4443 23.8453 93.447 24.0053 92.615 24.144C91.783 24.2827 91.0683 24.416 90.471 24.544C89.8737 24.6613 89.3457 24.7947 88.887 24.944C88.439 25.104 88.0603 25.2907 87.751 25.504C87.4417 25.7173 87.2017 25.9627 87.031 26.24C86.871 26.5173 86.791 26.8427 86.791 27.216C86.791 27.6427 86.8977 28.0213 87.111 28.352C87.3243 28.672 87.6337 28.928 88.039 29.12C88.455 29.312 88.967 29.408 89.575 29.408ZM109.277 32.48C107.495 32.48 105.975 32.0853 104.717 31.296C103.458 30.496 102.493 29.408 101.821 28.032C101.159 26.656 100.823 25.0987 100.813 23.36C100.823 21.5893 101.17 20.0213 101.853 18.656C102.546 17.28 103.527 16.2027 104.797 15.424C106.066 14.6347 107.575 14.24 109.325 14.24C111.287 14.24 112.946 14.736 114.301 15.728C115.666 16.7093 116.557 18.0533 116.973 19.76L113.133 20.8C112.834 19.872 112.338 19.152 111.645 18.64C110.951 18.1173 110.162 17.856 109.277 17.856C108.274 17.856 107.447 18.096 106.797 18.576C106.146 19.0453 105.666 19.696 105.357 20.528C105.047 21.36 104.893 22.304 104.893 23.36C104.893 25.0027 105.261 26.3307 105.997 27.344C106.733 28.3573 107.826 28.864 109.277 28.864C110.301 28.864 111.106 28.6293 111.693 28.16C112.29 27.6907 112.738 27.0133 113.037 26.128L116.973 27.008C116.439 28.768 115.506 30.1227 114.173 31.072C112.839 32.0107 111.207 32.48 109.277 32.48ZM119.507 32L119.539 8.96H123.443V23.04L129.763 14.72H134.579L127.875 23.36L135.155 32H130.051L123.443 23.68V32H119.507Z" fill="white"/>
<rect y="28" width="16" height="4" fill="white"/>
</svg>
