<svg width="14" height="18" viewBox="0 0 14 18" fill="none" xmlns="http://www.w3.org/2000/svg">
<g clip-path="url(#clip0_846_14429)">
<path d="M8.92896 4.57197H13.5L8.92896 0.000976562V4.57197Z" fill="#188038"/>
<path d="M8.92896 4.57197V0.000976562H1.27559C0.716308 0.000976562 0.266357 0.450927 0.266357 1.01021V16.9898C0.266357 17.5491 0.716308 17.999 1.27559 17.999H12.4907C13.05 17.999 13.5 17.5491 13.5 16.9898V4.57197H8.92896Z" fill="#34A853"/>
<path d="M2.78955 7.06152V13.2473H10.977V7.06152H2.78955ZM6.37654 12.2381H3.79879V10.6569H6.37654V12.2381ZM6.37654 9.65189H3.79879V8.07076H6.37654V9.65189ZM9.96774 12.2381H7.38998V10.6569H9.96774V12.2381ZM9.96774 9.65189H7.38998V8.07076H9.96774V9.65189Z" fill="white"/>
</g>
<defs>
<clipPath id="clip0_846_14429">
<rect width="13.2336" height="18" fill="white" transform="translate(0.266357)"/>
</clipPath>
</defs>
</svg>
